# xmcd
#
# Track frame offsets:
#	150
#	11762
#	21350
#	33187
#	46285
#	55137
#	64922
#	77717
#	88597
#	101430
#	113887
#	125857
#	134967
#	147205
#	160522
#	171872
#	183920
#	195842
#	207395
#	216490
#	228315
#	239390
#	254282
#	264907
#	274512
#	286195
#	299302
#
# Disc length: 4139 seconds
#
# Revision: 1
# Processed by: cddbd v1.4PL0 Copyright (c) Steve Scherf et al.
# Submitted via: MusicWizard 6.0.2
#
DISCID=8a10291b
DTITLE=Dean Martin - Everybody Loves Somebody   Vol. 4
DYEAR=1900
DGENRE=Vocal
TTITLE0=Siesta Fiesta
TTITLE1=A Littel Voice
TTITLE2=So Long Baby
TTITLE3=The Door Is Still Open My Heart
TTITLE4=You're Nobody 'til Somebody Loves You
TTITLE5=Every Minute, Every Hour
TTITLE6=We'll Sing In The Sunshine
TTITLE7=Clinging Vine
TTITLE8=Always Together
TTITLE9=In The Misty Moonlight
TTITLE10=Have A Heart
TTITLE11=You'll Always Be The One I Love
TTITLE12=Wedding Bells
TTITLE13=Sophia
TTITLE14=Send Me The Pillow You Dream On
TTITLE15=I'll Be Seeing You
TTITLE16=Send Me Some Lovin'
TTITLE17=In The Chapel In The Moonlight
TTITLE18=My Heart Is An Open Book
TTITLE19=I'll Be Seeing You
TTITLE20=(Remember Me) I'm The One Who Loves You
TTITLE21=Here Comes My Baby
TTITLE22=Welcome To My World
TTITLE23=The Birds And The Bees
TTITLE24=I Don't Think You Love Me Anymore
TTITLE25=My Shoes Keep Walking Back To You
TTITLE26=Born To Lose
EXTD=
EXTT0=
EXTT1=
EXTT2=
EXTT3=
EXTT4=
EXTT5=
EXTT6=
EXTT7=
EXTT8=
EXTT9=
EXTT10=
EXTT11=
EXTT12=
EXTT13=
EXTT14=
EXTT15=
EXTT16=
EXTT17=
EXTT18=
EXTT19=
EXTT20=
EXTT21=
EXTT22=
EXTT23=
EXTT24=
EXTT25=
EXTT26=
PLAYORDER=
